<mxfile host="app.diagrams.net" agent="Mozilla/5.0 (Windows NT 10.0; Win64; x64; rv:135.0) Gecko/20100101 Firefox/135.0" version="26.0.11">
  <diagram id="C5RBs43oDa-KdzZeNtuy" name="Page-1">
    <mxGraphModel dx="1434" dy="746" grid="1" gridSize="10" guides="1" tooltips="1" connect="1" arrows="1" fold="1" page="1" pageScale="1" pageWidth="827" pageHeight="1169" math="0" shadow="0">
      <root>
        <mxCell id="WIyWlLk6GJQsqaUBKTNV-0" />
        <mxCell id="WIyWlLk6GJQsqaUBKTNV-1" parent="WIyWlLk6GJQsqaUBKTNV-0" />
        <mxCell id="bm9YyL-ualGbF_uNrH6h-28" style="edgeStyle=orthogonalEdgeStyle;rounded=0;orthogonalLoop=1;jettySize=auto;html=1;exitX=0.5;exitY=1;exitDx=0;exitDy=0;entryX=0.5;entryY=0;entryDx=0;entryDy=0;" edge="1" parent="WIyWlLk6GJQsqaUBKTNV-1" target="bm9YyL-ualGbF_uNrH6h-1">
          <mxGeometry relative="1" as="geometry">
            <mxPoint x="300" y="60" as="sourcePoint" />
          </mxGeometry>
        </mxCell>
        <mxCell id="bm9YyL-ualGbF_uNrH6h-27" style="edgeStyle=orthogonalEdgeStyle;rounded=0;orthogonalLoop=1;jettySize=auto;html=1;exitX=0.5;exitY=1;exitDx=0;exitDy=0;entryX=0.5;entryY=0;entryDx=0;entryDy=0;" edge="1" parent="WIyWlLk6GJQsqaUBKTNV-1" source="bm9YyL-ualGbF_uNrH6h-1" target="bm9YyL-ualGbF_uNrH6h-2">
          <mxGeometry relative="1" as="geometry" />
        </mxCell>
        <mxCell id="bm9YyL-ualGbF_uNrH6h-1" value="Récupération de la liste des produit" style="rounded=1;whiteSpace=wrap;html=1;" vertex="1" parent="WIyWlLk6GJQsqaUBKTNV-1">
          <mxGeometry x="240" y="90" width="120" height="60" as="geometry" />
        </mxCell>
        <mxCell id="bm9YyL-ualGbF_uNrH6h-2" value="p = produits[0]" style="rounded=1;whiteSpace=wrap;html=1;absoluteArcSize=1;arcSize=14;strokeWidth=2;" vertex="1" parent="WIyWlLk6GJQsqaUBKTNV-1">
          <mxGeometry x="250" y="170" width="100" height="50" as="geometry" />
        </mxCell>
        <mxCell id="bm9YyL-ualGbF_uNrH6h-25" style="edgeStyle=orthogonalEdgeStyle;rounded=0;orthogonalLoop=1;jettySize=auto;html=1;exitX=0.5;exitY=1;exitDx=0;exitDy=0;entryX=0.5;entryY=0;entryDx=0;entryDy=0;" edge="1" parent="WIyWlLk6GJQsqaUBKTNV-1" source="bm9YyL-ualGbF_uNrH6h-5" target="bm9YyL-ualGbF_uNrH6h-7">
          <mxGeometry relative="1" as="geometry" />
        </mxCell>
        <mxCell id="bm9YyL-ualGbF_uNrH6h-5" value="Récupération des recettes contenant p" style="rounded=1;whiteSpace=wrap;html=1;absoluteArcSize=1;arcSize=14;strokeWidth=2;" vertex="1" parent="WIyWlLk6GJQsqaUBKTNV-1">
          <mxGeometry x="250" y="250" width="100" height="60" as="geometry" />
        </mxCell>
        <mxCell id="bm9YyL-ualGbF_uNrH6h-12" style="edgeStyle=orthogonalEdgeStyle;rounded=0;orthogonalLoop=1;jettySize=auto;html=1;entryX=0;entryY=0.5;entryDx=0;entryDy=0;" edge="1" parent="WIyWlLk6GJQsqaUBKTNV-1" source="bm9YyL-ualGbF_uNrH6h-6" target="bm9YyL-ualGbF_uNrH6h-9">
          <mxGeometry relative="1" as="geometry" />
        </mxCell>
        <mxCell id="bm9YyL-ualGbF_uNrH6h-39" value="Non" style="edgeLabel;html=1;align=center;verticalAlign=middle;resizable=0;points=[];" vertex="1" connectable="0" parent="bm9YyL-ualGbF_uNrH6h-12">
          <mxGeometry x="-0.4" y="-1" relative="1" as="geometry">
            <mxPoint y="-12" as="offset" />
          </mxGeometry>
        </mxCell>
        <mxCell id="bm9YyL-ualGbF_uNrH6h-19" style="edgeStyle=orthogonalEdgeStyle;rounded=0;orthogonalLoop=1;jettySize=auto;html=1;entryX=0.5;entryY=0;entryDx=0;entryDy=0;" edge="1" parent="WIyWlLk6GJQsqaUBKTNV-1" source="bm9YyL-ualGbF_uNrH6h-6" target="bm9YyL-ualGbF_uNrH6h-18">
          <mxGeometry relative="1" as="geometry" />
        </mxCell>
        <mxCell id="bm9YyL-ualGbF_uNrH6h-40" value="Oui" style="edgeLabel;html=1;align=center;verticalAlign=middle;resizable=0;points=[];" vertex="1" connectable="0" parent="bm9YyL-ualGbF_uNrH6h-19">
          <mxGeometry x="-0.05" y="-4" relative="1" as="geometry">
            <mxPoint x="14" y="-3" as="offset" />
          </mxGeometry>
        </mxCell>
        <mxCell id="bm9YyL-ualGbF_uNrH6h-6" value="&lt;div&gt;Toutes les&amp;nbsp;&lt;/div&gt;&lt;div&gt;recettes sont réalisable ?&lt;/div&gt;" style="strokeWidth=2;html=1;shape=mxgraph.flowchart.decision;whiteSpace=wrap;" vertex="1" parent="WIyWlLk6GJQsqaUBKTNV-1">
          <mxGeometry x="245" y="450" width="110" height="110" as="geometry" />
        </mxCell>
        <mxCell id="bm9YyL-ualGbF_uNrH6h-7" value="Lancement de l&#39;optimisateur" style="rounded=1;whiteSpace=wrap;html=1;absoluteArcSize=1;arcSize=14;strokeWidth=2;" vertex="1" parent="WIyWlLk6GJQsqaUBKTNV-1">
          <mxGeometry x="250" y="330" width="100" height="60" as="geometry" />
        </mxCell>
        <mxCell id="bm9YyL-ualGbF_uNrH6h-15" style="edgeStyle=orthogonalEdgeStyle;rounded=0;orthogonalLoop=1;jettySize=auto;html=1;exitX=0.5;exitY=0;exitDx=0;exitDy=0;entryX=0.5;entryY=1;entryDx=0;entryDy=0;" edge="1" parent="WIyWlLk6GJQsqaUBKTNV-1" source="bm9YyL-ualGbF_uNrH6h-8" target="bm9YyL-ualGbF_uNrH6h-11">
          <mxGeometry relative="1" as="geometry">
            <mxPoint x="570" y="450" as="targetPoint" />
          </mxGeometry>
        </mxCell>
        <mxCell id="bm9YyL-ualGbF_uNrH6h-8" value="Ajout de la r dans la liste des recettes infaisables" style="rounded=1;whiteSpace=wrap;html=1;absoluteArcSize=1;arcSize=14;strokeWidth=2;" vertex="1" parent="WIyWlLk6GJQsqaUBKTNV-1">
          <mxGeometry x="510" y="470" width="110" height="70" as="geometry" />
        </mxCell>
        <mxCell id="bm9YyL-ualGbF_uNrH6h-14" style="edgeStyle=orthogonalEdgeStyle;rounded=0;orthogonalLoop=1;jettySize=auto;html=1;entryX=0;entryY=0.5;entryDx=0;entryDy=0;" edge="1" parent="WIyWlLk6GJQsqaUBKTNV-1" source="bm9YyL-ualGbF_uNrH6h-9" target="bm9YyL-ualGbF_uNrH6h-8">
          <mxGeometry relative="1" as="geometry" />
        </mxCell>
        <mxCell id="bm9YyL-ualGbF_uNrH6h-9" value="r = la recette utilisant le plus de slack variable" style="rounded=1;whiteSpace=wrap;html=1;absoluteArcSize=1;arcSize=14;strokeWidth=2;" vertex="1" parent="WIyWlLk6GJQsqaUBKTNV-1">
          <mxGeometry x="395" y="470" width="100" height="70" as="geometry" />
        </mxCell>
        <mxCell id="bm9YyL-ualGbF_uNrH6h-16" style="edgeStyle=orthogonalEdgeStyle;rounded=0;orthogonalLoop=1;jettySize=auto;html=1;entryX=1;entryY=0.5;entryDx=0;entryDy=0;exitX=0.5;exitY=0;exitDx=0;exitDy=0;" edge="1" parent="WIyWlLk6GJQsqaUBKTNV-1" source="bm9YyL-ualGbF_uNrH6h-11" target="bm9YyL-ualGbF_uNrH6h-7">
          <mxGeometry relative="1" as="geometry">
            <Array as="points">
              <mxPoint x="565" y="360" />
            </Array>
          </mxGeometry>
        </mxCell>
        <mxCell id="bm9YyL-ualGbF_uNrH6h-11" value="Suppression de r dans la liste des recettes" style="rounded=1;whiteSpace=wrap;html=1;absoluteArcSize=1;arcSize=14;strokeWidth=2;" vertex="1" parent="WIyWlLk6GJQsqaUBKTNV-1">
          <mxGeometry x="510" y="380" width="110" height="70" as="geometry" />
        </mxCell>
        <mxCell id="bm9YyL-ualGbF_uNrH6h-17" style="edgeStyle=orthogonalEdgeStyle;rounded=0;orthogonalLoop=1;jettySize=auto;html=1;entryX=0.5;entryY=0;entryDx=0;entryDy=0;entryPerimeter=0;" edge="1" parent="WIyWlLk6GJQsqaUBKTNV-1" source="bm9YyL-ualGbF_uNrH6h-7" target="bm9YyL-ualGbF_uNrH6h-6">
          <mxGeometry relative="1" as="geometry" />
        </mxCell>
        <mxCell id="bm9YyL-ualGbF_uNrH6h-18" value="Ajout des ids dans la liste des identifiants" style="rounded=1;whiteSpace=wrap;html=1;absoluteArcSize=1;arcSize=14;strokeWidth=2;" vertex="1" parent="WIyWlLk6GJQsqaUBKTNV-1">
          <mxGeometry x="245" y="600" width="110" height="50" as="geometry" />
        </mxCell>
        <mxCell id="bm9YyL-ualGbF_uNrH6h-44" style="edgeStyle=orthogonalEdgeStyle;rounded=0;orthogonalLoop=1;jettySize=auto;html=1;exitX=0.5;exitY=0;exitDx=0;exitDy=0;entryX=0;entryY=0.5;entryDx=0;entryDy=0;" edge="1" parent="WIyWlLk6GJQsqaUBKTNV-1" source="bm9YyL-ualGbF_uNrH6h-21" target="bm9YyL-ualGbF_uNrH6h-5">
          <mxGeometry relative="1" as="geometry" />
        </mxCell>
        <mxCell id="bm9YyL-ualGbF_uNrH6h-21" value="p = p+1" style="rounded=1;whiteSpace=wrap;html=1;absoluteArcSize=1;arcSize=14;strokeWidth=2;" vertex="1" parent="WIyWlLk6GJQsqaUBKTNV-1">
          <mxGeometry x="90" y="705" width="105" height="40" as="geometry" />
        </mxCell>
        <mxCell id="bm9YyL-ualGbF_uNrH6h-26" style="edgeStyle=orthogonalEdgeStyle;rounded=0;orthogonalLoop=1;jettySize=auto;html=1;exitX=0.5;exitY=1;exitDx=0;exitDy=0;entryX=0.5;entryY=0;entryDx=0;entryDy=0;entryPerimeter=0;" edge="1" parent="WIyWlLk6GJQsqaUBKTNV-1" source="bm9YyL-ualGbF_uNrH6h-2">
          <mxGeometry relative="1" as="geometry">
            <mxPoint x="300" y="250" as="targetPoint" />
          </mxGeometry>
        </mxCell>
        <mxCell id="bm9YyL-ualGbF_uNrH6h-34" style="edgeStyle=orthogonalEdgeStyle;rounded=0;orthogonalLoop=1;jettySize=auto;html=1;exitX=0.5;exitY=1;exitDx=0;exitDy=0;entryX=0.5;entryY=0;entryDx=0;entryDy=0;" edge="1" parent="WIyWlLk6GJQsqaUBKTNV-1" source="bm9YyL-ualGbF_uNrH6h-30" target="bm9YyL-ualGbF_uNrH6h-33">
          <mxGeometry relative="1" as="geometry" />
        </mxCell>
        <mxCell id="bm9YyL-ualGbF_uNrH6h-30" value="Ajout des recettes infaisables à cause de la taille des réacteurs à la liste des recettes infaisable" style="rounded=1;whiteSpace=wrap;html=1;absoluteArcSize=1;arcSize=14;strokeWidth=2;" vertex="1" parent="WIyWlLk6GJQsqaUBKTNV-1">
          <mxGeometry x="380" y="745" width="100" height="100" as="geometry" />
        </mxCell>
        <mxCell id="bm9YyL-ualGbF_uNrH6h-32" value="Start" style="strokeWidth=2;html=1;shape=mxgraph.flowchart.start_1;whiteSpace=wrap;" vertex="1" parent="WIyWlLk6GJQsqaUBKTNV-1">
          <mxGeometry x="250" y="20" width="100" height="50" as="geometry" />
        </mxCell>
        <mxCell id="bm9YyL-ualGbF_uNrH6h-36" style="edgeStyle=orthogonalEdgeStyle;rounded=0;orthogonalLoop=1;jettySize=auto;html=1;exitX=0.5;exitY=1;exitDx=0;exitDy=0;entryX=0.5;entryY=0;entryDx=0;entryDy=0;" edge="1" parent="WIyWlLk6GJQsqaUBKTNV-1" source="bm9YyL-ualGbF_uNrH6h-33" target="bm9YyL-ualGbF_uNrH6h-35">
          <mxGeometry relative="1" as="geometry" />
        </mxCell>
        <mxCell id="bm9YyL-ualGbF_uNrH6h-33" value="Création d&#39;une liste avec les quantités de produit manquant" style="rounded=1;whiteSpace=wrap;html=1;absoluteArcSize=1;arcSize=14;strokeWidth=2;" vertex="1" parent="WIyWlLk6GJQsqaUBKTNV-1">
          <mxGeometry x="380" y="865" width="100" height="80" as="geometry" />
        </mxCell>
        <mxCell id="bm9YyL-ualGbF_uNrH6h-35" value="Calcul des quantité présentes dans les recettes réalisable" style="rounded=1;whiteSpace=wrap;html=1;absoluteArcSize=1;arcSize=14;strokeWidth=2;" vertex="1" parent="WIyWlLk6GJQsqaUBKTNV-1">
          <mxGeometry x="380" y="975" width="100" height="80" as="geometry" />
        </mxCell>
        <mxCell id="bm9YyL-ualGbF_uNrH6h-43" style="edgeStyle=orthogonalEdgeStyle;rounded=0;orthogonalLoop=1;jettySize=auto;html=1;exitX=0;exitY=0.5;exitDx=0;exitDy=0;exitPerimeter=0;entryX=1;entryY=0.5;entryDx=0;entryDy=0;" edge="1" parent="WIyWlLk6GJQsqaUBKTNV-1" source="bm9YyL-ualGbF_uNrH6h-41" target="bm9YyL-ualGbF_uNrH6h-21">
          <mxGeometry relative="1" as="geometry" />
        </mxCell>
        <mxCell id="bm9YyL-ualGbF_uNrH6h-46" value="Non" style="edgeLabel;html=1;align=center;verticalAlign=middle;resizable=0;points=[];" vertex="1" connectable="0" parent="bm9YyL-ualGbF_uNrH6h-43">
          <mxGeometry x="0.04" y="3" relative="1" as="geometry">
            <mxPoint y="-18" as="offset" />
          </mxGeometry>
        </mxCell>
        <mxCell id="bm9YyL-ualGbF_uNrH6h-47" style="edgeStyle=orthogonalEdgeStyle;rounded=0;orthogonalLoop=1;jettySize=auto;html=1;exitX=1;exitY=0.5;exitDx=0;exitDy=0;exitPerimeter=0;entryX=0.5;entryY=0;entryDx=0;entryDy=0;" edge="1" parent="WIyWlLk6GJQsqaUBKTNV-1" source="bm9YyL-ualGbF_uNrH6h-41" target="bm9YyL-ualGbF_uNrH6h-30">
          <mxGeometry relative="1" as="geometry" />
        </mxCell>
        <mxCell id="bm9YyL-ualGbF_uNrH6h-41" value="&lt;div&gt;p =&amp;nbsp;&lt;/div&gt;&lt;div&gt;dernier produit?&lt;/div&gt;" style="strokeWidth=2;html=1;shape=mxgraph.flowchart.decision;whiteSpace=wrap;" vertex="1" parent="WIyWlLk6GJQsqaUBKTNV-1">
          <mxGeometry x="245" y="670" width="110" height="110" as="geometry" />
        </mxCell>
        <mxCell id="bm9YyL-ualGbF_uNrH6h-45" style="edgeStyle=orthogonalEdgeStyle;rounded=0;orthogonalLoop=1;jettySize=auto;html=1;exitX=0.5;exitY=1;exitDx=0;exitDy=0;entryX=0.5;entryY=0;entryDx=0;entryDy=0;entryPerimeter=0;" edge="1" parent="WIyWlLk6GJQsqaUBKTNV-1" source="bm9YyL-ualGbF_uNrH6h-18" target="bm9YyL-ualGbF_uNrH6h-41">
          <mxGeometry relative="1" as="geometry" />
        </mxCell>
        <mxCell id="bm9YyL-ualGbF_uNrH6h-48" value="Fin" style="strokeWidth=2;html=1;shape=mxgraph.flowchart.terminator;whiteSpace=wrap;" vertex="1" parent="WIyWlLk6GJQsqaUBKTNV-1">
          <mxGeometry x="380" y="1080" width="100" height="50" as="geometry" />
        </mxCell>
        <mxCell id="bm9YyL-ualGbF_uNrH6h-49" style="edgeStyle=orthogonalEdgeStyle;rounded=0;orthogonalLoop=1;jettySize=auto;html=1;exitX=0.5;exitY=1;exitDx=0;exitDy=0;entryX=0.5;entryY=0;entryDx=0;entryDy=0;entryPerimeter=0;" edge="1" parent="WIyWlLk6GJQsqaUBKTNV-1" source="bm9YyL-ualGbF_uNrH6h-35" target="bm9YyL-ualGbF_uNrH6h-48">
          <mxGeometry relative="1" as="geometry" />
        </mxCell>
      </root>
    </mxGraphModel>
  </diagram>
</mxfile>
